<?xml version="1.0" encoding="UTF-8" standalone="no"?>
<!-- Created with Inkscape (http://www.inkscape.org/) -->

<svg
   xmlns:dc="http://purl.org/dc/elements/1.1/"
   xmlns:cc="http://creativecommons.org/ns#"
   xmlns:rdf="http://www.w3.org/1999/02/22-rdf-syntax-ns#"
   xmlns:svg="http://www.w3.org/2000/svg"
   xmlns="http://www.w3.org/2000/svg"
   xmlns:sodipodi="http://sodipodi.sourceforge.net/DTD/sodipodi-0.dtd"
   xmlns:inkscape="http://www.inkscape.org/namespaces/inkscape"
   width="1415.0004"
   height="190"
   viewBox="0 0 374.38551 50.270835"
   version="1.1"
   id="svg1089"
   inkscape:version="0.92.4 (5da689c313, 2019-01-14)"
   sodipodi:docname="LogoStripped.svg">
  <defs
     id="defs1083" />
  <sodipodi:namedview
     id="base"
     pagecolor="#141414"
     bordercolor="#666666"
     borderopacity="1.0"
     inkscape:pageopacity="0"
     inkscape:pageshadow="2"
     inkscape:zoom="0.5"
     inkscape:cx="683.63427"
     inkscape:cy="-60.906462"
     inkscape:document-units="px"
     inkscape:current-layer="layer4"
     showgrid="false"
     units="px"
     inkscape:window-width="1920"
     inkscape:window-height="1017"
     inkscape:window-x="-8"
     inkscape:window-y="-8"
     inkscape:window-maximized="1"
     fit-margin-top="0"
     fit-margin-left="0"
     fit-margin-right="15"
     fit-margin-bottom="0">
    <inkscape:grid
       type="xygrid"
       id="grid1634"
       originx="0"
       originy="-1.3229207" />
  </sodipodi:namedview>
  <metadata
     id="metadata1086">
    <rdf:RDF>
      <cc:Work
         rdf:about="">
        <dc:format>image/svg+xml</dc:format>
        <dc:type
           rdf:resource="http://purl.org/dc/dcmitype/StillImage" />
        <dc:title />
      </cc:Work>
    </rdf:RDF>
  </metadata>
  <g
     inkscape:label="Layer 1"
     inkscape:groupmode="layer"
     id="layer1"
     transform="translate(0,-245.40624)"
     style="display:inline">
    <path
       style="font-style:normal;font-variant:normal;font-weight:900;font-stretch:normal;font-size:36.74780273px;line-height:6.89021254px;font-family:Orbitron;-inkscape-font-specification:'Orbitron Heavy';font-variant-ligatures:normal;font-variant-caps:normal;font-variant-numeric:normal;text-align:start;letter-spacing:0px;word-spacing:0px;writing-mode:lr-tb;text-anchor:start;display:inline;fill:#ffffff;fill-opacity:1;stroke:none;stroke-width:0.19094682"
       d="m 3.9687476,279.00832 v 6.96753 5.73247 h 5.7324679 6.9675325 v -5.73247 H 9.7012155 v -6.96753 z"
       id="path5243"
       inkscape:connector-curvature="0" />
    <path
       style="font-style:normal;font-variant:normal;font-weight:900;font-stretch:normal;font-size:36.74780273px;line-height:6.89021254px;font-family:Orbitron;-inkscape-font-specification:'Orbitron Heavy';font-variant-ligatures:normal;font-variant-caps:normal;font-variant-numeric:normal;text-align:start;letter-spacing:0px;word-spacing:0px;writing-mode:lr-tb;text-anchor:start;display:inline;fill:#ffffff;fill-opacity:1;stroke:none;stroke-width:0.19094682"
       d="m 3.9687476,249.37499 v 5.73246 6.96754 h 5.7324679 v -6.96754 h 6.9675325 v -5.73246 H 9.7012155 Z"
       id="path5243-6"
       inkscape:connector-curvature="0" />
    <path
       id="path1722"
       d="m 46.302076,279.00832 v 6.96753 5.73247 h -5.73247 -6.967529 v -5.73247 h 6.967529 v -6.96753 z"
       style="font-style:normal;font-variant:normal;font-weight:900;font-stretch:normal;font-size:36.74780273px;line-height:6.89021254px;font-family:Orbitron;-inkscape-font-specification:'Orbitron Heavy';font-variant-ligatures:normal;font-variant-caps:normal;font-variant-numeric:normal;text-align:start;letter-spacing:0px;word-spacing:0px;writing-mode:lr-tb;text-anchor:start;display:inline;fill:#ffffff;fill-opacity:1;stroke:none;stroke-width:0.19094682"
       inkscape:connector-curvature="0" />
    <path
       id="path1724"
       d="m 46.302076,249.37499 v 5.73246 6.96754 h -5.73247 v -6.96754 h -6.967529 v -5.73246 h 6.967529 z"
       style="font-style:normal;font-variant:normal;font-weight:900;font-stretch:normal;font-size:36.74780273px;line-height:6.89021254px;font-family:Orbitron;-inkscape-font-specification:'Orbitron Heavy';font-variant-ligatures:normal;font-variant-caps:normal;font-variant-numeric:normal;text-align:start;letter-spacing:0px;word-spacing:0px;writing-mode:lr-tb;text-anchor:start;display:inline;fill:#ffffff;fill-opacity:1;stroke:none;stroke-width:0.19094682"
       inkscape:connector-curvature="0" />
    <path
       style="opacity:1;fill:#ffffff;fill-opacity:1;stroke:none;stroke-width:219.99998474;stroke-linejoin:round;stroke-miterlimit:4;stroke-dasharray:none;stroke-opacity:1"
       d="m 95,5 -11,84 -84,11 84,11 11,84 11,-84 84,-11 -84,-11 z"
       transform="matrix(0.26458334,0,0,0.26458334,0,244.08332)"
       id="rect1726"
       inkscape:connector-curvature="0" />
  </g>
  <g
     inkscape:groupmode="layer"
     id="layer4"
     inkscape:label="Layer 4"
     style="display:inline"
     transform="translate(0,3.3e-6)">
    <path
       inkscape:connector-curvature="0"
       id="path5227-57"
       style="font-style:normal;font-variant:normal;font-weight:900;font-stretch:normal;font-size:36.74780273px;line-height:6.89021254px;font-family:Orbitron;-inkscape-font-specification:'Orbitron Heavy';font-variant-ligatures:normal;font-variant-caps:normal;font-variant-numeric:normal;text-align:start;letter-spacing:0px;word-spacing:0px;writing-mode:lr-tb;text-anchor:start;display:inline;fill:#ffffff;fill-opacity:1;stroke:none;stroke-width:0.27560851"
       d="M 63.647009,11.906184 H 79.19133 q 2.278364,0 3.858519,1.6169 1.616903,1.5801 1.616903,3.8217 V 38.36458 h -5.769405 v -8.5255 H 63.904243 v 8.5255 H 58.208334 V 17.344784 q 0,-2.2783 1.580156,-3.8585 1.580155,-1.5801 3.858519,-1.5801 z m 0.257234,12.2002 h 14.993104 v -6.4676 H 63.904243 Z" />
    <path
       inkscape:connector-curvature="0"
       style="font-style:normal;font-variant:normal;font-weight:900;font-stretch:normal;font-size:36.74780273px;line-height:6.89021254px;font-family:Orbitron;-inkscape-font-specification:'Orbitron Heavy';font-variant-ligatures:normal;font-variant-caps:normal;font-variant-numeric:normal;text-align:start;letter-spacing:0px;word-spacing:0px;writing-mode:lr-tb;text-anchor:start;display:inline;fill:#ffffff;fill-opacity:1;stroke:none;stroke-width:0.27560851"
       d="m 95.39676,11.906184 c -1.51891,0 -2.80472,0.5269 -3.85816,1.5803 -1.053438,1.0534 -1.580266,2.3393 -1.580266,3.8582 V 32.92608 c 0,1.519 0.526828,2.8048 1.580266,3.8582 1.05344,1.0534 2.33925,1.5803 3.85816,1.5803 h 13.08241 2.46238 c 1.51891,0 2.80473,-0.5269 3.85816,-1.5803 1.07794,-1.0779 1.61696,-2.3637 1.61696,-3.8582 v -3.8219 h -5.76916 v 3.5279 H 108.47917 95.65411 V 17.638684 h 11.50214 1.32292 2.16834 v 3.528 h 5.76916 v -3.822 c 0,-1.4944 -0.53902,-2.7803 -1.61696,-3.8582 -1.05343,-1.0534 -2.33925,-1.5803 -3.85816,-1.5803 h -2.46238 -1.32292 z"
       id="path5231-257" />
    <path
       inkscape:connector-curvature="0"
       style="font-style:normal;font-variant:normal;font-weight:900;font-stretch:normal;font-size:36.74780273px;line-height:6.89021254px;font-family:Orbitron;-inkscape-font-specification:'Orbitron Heavy';font-variant-ligatures:normal;font-variant-caps:normal;font-variant-numeric:normal;text-align:start;letter-spacing:0px;word-spacing:0px;writing-mode:lr-tb;text-anchor:start;display:inline;fill:#ffffff;fill-opacity:1;stroke:none;stroke-width:0.27560851"
       d="m 121.70833,11.906184 v 1.1896 1.3705 23.898296 h 5.73247 V 19.604984 l 7.4967,6.719996 7.4967,-6.719996 V 38.36458 h 5.73247 v -23.898296 -1.3705 -1.1896 h -5.73247 l -7.4967,6.7201 -7.4967,-6.7201 z"
       id="path5243-1-5-71" />
    <path
       inkscape:connector-curvature="0"
       id="path5241-6-9-4"
       style="font-style:normal;font-variant:normal;font-weight:900;font-stretch:normal;font-size:36.74780273px;line-height:6.89021254px;font-family:Orbitron;-inkscape-font-specification:'Orbitron Heavy';font-variant-ligatures:normal;font-variant-caps:normal;font-variant-numeric:normal;text-align:start;letter-spacing:0px;word-spacing:0px;writing-mode:lr-tb;text-anchor:start;display:inline;fill:#ffffff;fill-opacity:1;stroke:none;stroke-width:0.27560851"
       d="m 179.91675,32.66868 v 5.6959 h -26.45841 v -5.6959 h 10.36287 V 17.602084 h -10.36287 v -5.6959 h 26.45841 v 5.6959 H 169.55387 V 32.66868 Z"
       sodipodi:nodetypes="ccccccccccccc" />
    <path
       inkscape:connector-curvature="0"
       id="path5255-3-04"
       style="font-style:normal;font-variant:normal;font-weight:900;font-stretch:normal;font-size:36.74780273px;line-height:6.89021254px;font-family:Orbitron;-inkscape-font-specification:'Orbitron Heavy';font-variant-ligatures:normal;font-variant-caps:normal;font-variant-numeric:normal;text-align:start;letter-spacing:0px;word-spacing:0px;writing-mode:lr-tb;text-anchor:start;display:inline;fill:#ffffff;fill-opacity:1;stroke:none;stroke-width:0.27560851"
       d="m 190.64702,11.906184 h 15.58107 q 2.24161,0 3.82177,1.6169 1.6169,1.5801 1.6169,3.8217 V 32.92588 q 0,2.2416 -1.6169,3.8585 -1.58016,1.5802 -3.82177,1.5802 h -15.58107 q -2.27837,0 -3.85852,-1.5802 -1.58016,-1.5801 -1.58016,-3.8585 V 17.344784 q 0,-2.2783 1.58016,-3.8585 1.58015,-1.5801 3.85852,-1.5801 z m 0.25723,5.7326 V 32.63188 h 14.9931 V 17.638784 Z" />
    <path
       inkscape:connector-curvature="0"
       id="path5253-9-68"
       style="font-style:normal;font-variant:normal;font-weight:900;font-stretch:normal;font-size:36.74780273px;line-height:6.89021254px;font-family:Orbitron;-inkscape-font-specification:'Orbitron Heavy';font-variant-ligatures:normal;font-variant-caps:normal;font-variant-numeric:normal;text-align:start;letter-spacing:0px;word-spacing:0px;writing-mode:lr-tb;text-anchor:start;display:inline;fill:#ffffff;fill-opacity:1;stroke:none;stroke-width:0.27560851"
       d="M 237.64735,29.54518 V 11.906184 h 5.76941 V 38.36468 h -5.87965 L 222.65425,20.652184 V 38.36468 h -5.69591 V 11.906184 h 5.87965 z" />
  </g>
</svg>
