<?xml version="1.0" standalone="no"?>
<!DOCTYPE svg PUBLIC "-//W3C//DTD SVG 20010904//EN"
 "http://www.w3.org/TR/2001/REC-SVG-20010904/DTD/svg10.dtd">
<svg version="1.0" xmlns="http://www.w3.org/2000/svg"
 width="700.000000pt" height="700.000000pt" viewBox="0 0 700.000000 700.000000"
 preserveAspectRatio="xMidYMid meet">
<metadata>
Created by potrace 1.11, written by Peter Selinger 2001-2013
</metadata>
<g transform="translate(0.000000,700.000000) scale(0.100000,-0.100000)"
fill="#000000" stroke="none">
<path d="M1870 6302 c0 -5 -16 -35 -36 -68 -20 -32 -48 -81 -63 -109 -16 -27
-104 -180 -196 -340 -222 -383 -255 -441 -255 -452 0 -5 17 -23 37 -39 20 -16
55 -45 78 -64 22 -19 56 -47 74 -63 l33 -27 -59 -103 c-33 -56 -131 -226 -217
-377 -87 -151 -160 -277 -162 -279 -3 -4 -93 27 -221 75 l-62 23 -111 -190
c-60 -105 -110 -195 -110 -200 0 -5 -4 -9 -10 -9 -5 0 -10 -4 -10 -10 0 -5
-13 -31 -29 -58 -15 -26 -39 -68 -53 -93 -14 -24 -62 -106 -107 -183 -44 -76
-81 -140 -81 -142 0 -3 -11 -22 -25 -44 -14 -22 -25 -44 -25 -49 0 -5 91 -166
201 -358 111 -191 237 -409 280 -484 l79 -136 132 48 c73 27 138 49 143 49 6
0 71 -107 146 -238 76 -130 174 -302 220 -380 51 -90 78 -146 72 -150 -6 -4
-58 -47 -116 -96 l-105 -89 22 -36 c13 -20 34 -56 48 -81 14 -25 84 -146 155
-270 72 -124 177 -306 235 -405 l103 -180 567 -3 566 -2 12 72 c7 40 14 80 15
90 10 54 19 114 17 121 -3 10 -30 9 446 11 280 1 436 -3 441 -9 5 -5 11 -28
14 -50 5 -37 20 -122 31 -185 2 -14 5 -31 5 -38 1 -10 118 -12 568 -10 l568 3
63 110 c94 160 251 434 277 480 13 22 68 117 123 212 l100 172 -41 33 c-23 18
-48 40 -57 48 -9 8 -52 44 -95 80 -44 35 -82 67 -85 70 -3 3 -75 64 -160 135
-85 70 -157 131 -160 134 -3 3 -30 26 -60 51 -30 25 -64 52 -75 62 -27 22
-171 143 -214 179 -18 16 -36 27 -40 25 -19 -11 -560 -323 -691 -399 -85 -49
-173 -100 -195 -113 -26 -15 -39 -29 -38 -41 4 -37 12 -90 27 -167 9 -44 14
-82 11 -84 -5 -5 -624 -6 -630 -1 -2 2 0 24 5 49 4 25 11 61 14 80 10 61 16
94 21 116 4 17 -7 28 -54 58 -33 20 -62 36 -66 36 -4 0 -19 8 -33 19 -15 10
-47 29 -72 43 -25 14 -61 34 -80 45 -19 11 -107 62 -195 113 -88 51 -178 103
-200 115 -22 13 -83 48 -135 79 -77 45 -97 53 -110 43 -8 -6 -54 -44 -102 -84
-47 -40 -90 -73 -95 -73 -4 0 -65 100 -136 223 -70 122 -141 245 -157 273
l-29 50 122 44 c67 24 125 46 130 50 9 7 10 1070 1 1079 -3 3 -61 26 -129 51
l-122 45 97 170 c54 94 125 218 159 277 l62 107 107 -89 106 -89 31 18 c81 49
526 305 545 314 8 4 92 52 185 107 126 74 170 104 168 117 -5 48 -15 112 -23
148 -20 92 -20 105 -2 106 59 3 599 4 609 1 6 -2 9 -15 7 -30 -16 -94 -35
-200 -39 -219 -4 -18 11 -30 108 -86 61 -36 128 -74 147 -86 19 -11 46 -26 60
-34 38 -20 550 -316 586 -338 l31 -19 50 43 c27 23 70 58 94 79 24 20 55 46
69 58 39 34 51 43 310 260 408 341 445 372 448 381 2 5 -51 105 -119 222 -67
116 -132 230 -145 252 -12 22 -82 144 -156 270 l-133 230 -566 3 -566 2 -18
-102 c-9 -57 -21 -123 -26 -148 l-10 -45 -439 0 c-383 0 -441 2 -444 15 -4 13
-18 99 -21 125 -1 6 -7 43 -14 83 l-13 72 -569 0 c-313 0 -569 -4 -569 -8z"/>
<path d="M5915 4326 c-144 -83 -277 -161 -298 -173 l-36 -22 38 -63 c21 -35
93 -160 161 -278 68 -118 131 -227 142 -242 23 -34 23 -49 -3 -95 -53 -93
-113 -199 -191 -333 -46 -80 -87 -152 -91 -160 -4 -8 -18 -32 -32 -52 l-25
-37 58 -34 c59 -35 220 -129 282 -165 19 -11 83 -47 141 -81 58 -33 110 -61
115 -61 5 0 50 71 99 157 106 183 98 169 304 527 106 184 159 286 156 297 -4
10 -36 69 -72 131 -36 62 -107 185 -158 273 -244 424 -318 550 -324 556 -3 3
-123 -62 -266 -145z"/>
<path d="M3430 4201 c-36 -21 -177 -103 -315 -182 l-250 -145 0 -373 0 -374
215 -125 c118 -68 238 -136 265 -152 28 -15 74 -42 104 -59 50 -30 55 -31 76
-17 13 9 39 24 57 34 18 11 147 85 287 166 140 80 258 146 263 146 4 0 7 170
6 377 l-3 377 -310 179 c-170 98 -314 180 -320 182 -5 2 -39 -13 -75 -34z"/>
</g>
</svg>
